<?xml version="1.0" standalone="no"?>
<!DOCTYPE svg PUBLIC "-//W3C//DTD SVG 20010904//EN"
 "http://www.w3.org/TR/2001/REC-SVG-20010904/DTD/svg10.dtd">
<svg version="1.0" xmlns="http://www.w3.org/2000/svg"
 width="200.000000pt" height="200.000000pt" viewBox="0 0 200.000000 200.000000"
 preserveAspectRatio="xMidYMid meet">

<g transform="translate(0.000000,200.000000) scale(0.100000,-0.100000)"
fill="#000000" stroke="none">
<path d="M1022 1755 c-41 -24 -76 -45 -78 -48 -3 -2 17 -17 43 -32 26 -15 62
-36 78 -46 l30 -18 84 48 83 48 -78 44 c-43 24 -81 45 -84 46 -3 1 -38 -18
-78 -42z"/>
<path d="M547 1482 l-257 -147 0 -392 0 -391 153 -87 c83 -48 155 -89 158 -91
4 -2 154 81 335 185 l329 188 3 95 3 94 -103 59 c-57 33 -142 82 -190 110
l-87 51 249 143 249 143 78 -43 78 -44 0 -300 0 -299 -252 -145 c-196 -113
-250 -148 -240 -157 6 -6 41 -28 77 -47 l66 -36 257 147 257 147 0 392 0 392
-159 90 -158 91 -329 -189 -329 -189 -3 -93 -3 -94 138 -80 c76 -43 161 -93
190 -110 l52 -31 -249 -143 -249 -143 -78 44 -78 43 0 300 0 299 253 145 c198
113 250 147 240 157 -7 6 -42 28 -79 47 l-65 36 -257 -147z"/>
<path d="M822 341 l-84 -48 82 -46 82 -46 79 46 c43 25 79 47 79 48 0 2 -21
15 -47 30 -27 15 -62 36 -78 46 l-30 18 -83 -48z"/>
</g>
</svg>
